<?xml version="1.0" encoding="utf-8"?>
<!-- Generator: Adobe Illustrator 24.2.1, SVG Export Plug-In . SVG Version: 6.00 Build 0)  -->
<svg version="1.1" id="Compound" xmlns="http://www.w3.org/2000/svg" xmlns:xlink="http://www.w3.org/1999/xlink" x="0px" y="0px"
	 viewBox="0 0 283.46 283.46" style="enable-background:new 0 0 283.46 283.46;" xml:space="preserve">
<style type="text/css">
	.st0{fill:#FF5237;}
</style>
<path class="st0" d="M88.44,94.36c0-1.45-1.14-2.23-5.33-3.65c-5.57-1.92-7.92-4.47-7.92-8.63c0-5.06,4.12-8.39,10.35-8.39
	c3.69,0,6.82,0.94,9.29,2.82l-2.7,5.25c-2-1.57-4.23-2.39-6.82-2.39c-2.43,0-3.61,0.78-3.61,2.39c0,1.53,1.1,2.27,5.49,3.72
	c5.57,1.84,7.76,4.31,7.76,8.43c0,4.94-4.16,8.12-10.15,8.12c-4.74,0-8.59-1.25-11.1-3.49l2.82-5.21c2.08,1.8,5.25,3.02,8.35,3.02
	C87.27,96.36,88.44,95.7,88.44,94.36z M108.44,81.42c6.12,0,10.86,4.23,10.86,10.31c0,6.08-4.74,10.31-10.86,10.31
	c-6.04,0-10.78-4.23-10.78-10.31C97.65,85.7,102.4,81.42,108.44,81.42z M108.44,87.03c-2.43,0-4.55,1.76-4.55,4.7
	c0,2.94,2.12,4.7,4.55,4.7c2.51,0,4.63-1.76,4.63-4.7C113.06,88.8,110.94,87.03,108.44,87.03z M134.7,101.66h-11.14V74.09h11.14
	c8.66,0,14.62,5.8,14.62,13.8C149.32,96.01,143.21,101.66,134.7,101.66z M130,95.85h4.71c4.7,0,8.12-3.18,8.12-8
	c0-4.7-3.29-7.96-8.12-7.96H130V95.85z M158.42,97.38l-1.92,4.27h-7.02l13.64-27.95h1.18l13.64,27.95h-7.02L169,97.38H158.42z
	 M160.69,92.28h6.04l-3.02-6.74L160.69,92.28z M202.4,142.95l-62.94,83.93v28.24h13.82l63.78-85.04h9.72v56.57H209L188.41,255h38.36
	v0.12h28.35V141.73h-51.9L202.4,142.95z M28.35,28.35v226.77l97.09-0.12v-28.35l-68.74,0.12V56.69h170.08v70.87h28.35V28.35H28.35z"
	/>
</svg>
