<?xml version="1.0" encoding="utf-8"?>
<!-- Generator: Adobe Illustrator 24.2.1, SVG Export Plug-In . SVG Version: 6.00 Build 0)  -->
<svg version="1.1" id="Compound" xmlns="http://www.w3.org/2000/svg" xmlns:xlink="http://www.w3.org/1999/xlink" x="0px" y="0px"
	 viewBox="0 0 283.5 283.5" style="enable-background:new 0 0 283.5 283.5;" xml:space="preserve">
<style type="text/css">
	.st0{fill:#FFFFFF;}
</style>
<path class="st0" d="M88.4,94.4c0-1.4-1.1-2.2-5.3-3.7c-5.6-1.9-7.9-4.5-7.9-8.6c0-5.1,4.1-8.4,10.3-8.4c3.7,0,6.8,0.9,9.3,2.8
	l-2.7,5.2c-2-1.6-4.2-2.4-6.8-2.4c-2.4,0-3.6,0.8-3.6,2.4c0,1.5,1.1,2.3,5.5,3.7c5.6,1.8,7.8,4.3,7.8,8.4c0,4.9-4.2,8.1-10.2,8.1
	c-4.7,0-8.6-1.2-11.1-3.5l2.8-5.2c2.1,1.8,5.2,3,8.3,3C87.3,96.4,88.4,95.7,88.4,94.4z M108.4,81.4c6.1,0,10.9,4.2,10.9,10.3
	c0,6.1-4.7,10.3-10.9,10.3c-6,0-10.8-4.2-10.8-10.3C97.7,85.7,102.4,81.4,108.4,81.4z M108.4,87c-2.4,0-4.6,1.8-4.6,4.7
	c0,2.9,2.1,4.7,4.6,4.7c2.5,0,4.6-1.8,4.6-4.7C113.1,88.8,110.9,87,108.4,87z M134.7,101.7h-11.1V74.1h11.1
	c8.7,0,14.6,5.8,14.6,13.8C149.3,96,143.2,101.7,134.7,101.7z M130,95.8h4.7c4.7,0,8.1-3.2,8.1-8c0-4.7-3.3-8-8.1-8H130V95.8z
	 M158.4,97.4l-1.9,4.3h-7l13.6-27.9h1.2l13.6,27.9h-7l-1.9-4.3H158.4z M160.7,92.3h6l-3-6.7L160.7,92.3z M202.4,142.9l-62.9,83.9
	v28.2h13.8l63.8-85h9.7v56.6H209L188.4,255h38.4v0.1h28.4V141.7h-51.9L202.4,142.9z M28.4,28.4v226.8l97.1-0.1v-28.4l-68.7,0.1V56.7
	h170.1v70.9h28.4V28.4H28.4z"/>
</svg>
